<svg width="310" height="102" viewBox="0 0 310 102" fill="none" xmlns="http://www.w3.org/2000/svg">
<g filter="url(#filter0_d_1001_479)">
<path d="M6 2.93836L253.625 2L289 38.5959L253.625 77.0685H6V2.93836Z" fill="black"/>
</g>
<path d="M231.334 3.4043H222.127L257.987 39.0618L222.127 76.1269H231.334L267.194 39.0618L231.334 3.4043Z" fill="#FF5200"/>
<path d="M249.748 3.4043H240.541L276.401 39.0618L240.541 76.1269H249.748L285.608 39.0618L249.748 3.4043Z" fill="#FF5200"/>
<path d="M67.6797 44.7734L71.5859 47.8691L69.5938 49.5684L65.7559 46.4727L67.6797 44.7734ZM71.7227 39.5781V40.2129C71.7227 41.2936 71.5729 42.2637 71.2734 43.123C70.974 43.9824 70.5508 44.7148 70.0039 45.3203C69.457 45.9258 68.8092 46.3913 68.0605 46.7168C67.3184 47.0358 66.4948 47.1953 65.5898 47.1953C64.6849 47.1953 63.8581 47.0358 63.1094 46.7168C62.3607 46.3913 61.7096 45.9258 61.1562 45.3203C60.6094 44.7148 60.1862 43.9824 59.8867 43.123C59.5872 42.2637 59.4375 41.2936 59.4375 40.2129V39.5781C59.4375 38.4974 59.5872 37.5273 59.8867 36.668C60.1862 35.8021 60.6061 35.0664 61.1465 34.4609C61.6934 33.8555 62.3411 33.3932 63.0898 33.0742C63.8385 32.7487 64.6654 32.5859 65.5703 32.5859C66.4753 32.5859 67.3021 32.7487 68.0508 33.0742C68.7995 33.3932 69.4473 33.8555 69.9941 34.4609C70.541 35.0664 70.9642 35.8021 71.2637 36.668C71.5697 37.5273 71.7227 38.4974 71.7227 39.5781ZM68.4902 40.2129V39.5586C68.4902 38.8359 68.4251 38.1979 68.2949 37.6445C68.1712 37.0846 67.9824 36.6159 67.7285 36.2383C67.4811 35.8607 67.1751 35.5775 66.8105 35.3887C66.446 35.1934 66.0326 35.0957 65.5703 35.0957C65.0951 35.0957 64.6751 35.1934 64.3105 35.3887C63.9525 35.5775 63.6497 35.8607 63.4023 36.2383C63.1615 36.6159 62.9759 37.0846 62.8457 37.6445C62.722 38.1979 62.6602 38.8359 62.6602 39.5586V40.2129C62.6602 40.929 62.722 41.5671 62.8457 42.127C62.9759 42.6803 63.1647 43.1491 63.4121 43.5332C63.6595 43.9173 63.9655 44.207 64.3301 44.4023C64.6947 44.5977 65.1146 44.6953 65.5898 44.6953C66.0521 44.6953 66.4622 44.5977 66.8203 44.4023C67.1849 44.207 67.4909 43.9173 67.7383 43.5332C67.9857 43.1491 68.1712 42.6803 68.2949 42.127C68.4251 41.5671 68.4902 40.929 68.4902 40.2129ZM79.7012 44.4512V36.4336H82.7676V47H79.8965L79.7012 44.4512ZM80.0234 42.293L80.8633 42.2734C80.8633 42.9831 80.7786 43.6374 80.6094 44.2363C80.4466 44.8353 80.1992 45.3561 79.8672 45.7988C79.5417 46.2415 79.1348 46.5866 78.6465 46.834C78.1647 47.0749 77.6016 47.1953 76.957 47.1953C76.4362 47.1953 75.9577 47.1237 75.5215 46.9805C75.0918 46.8307 74.7207 46.5996 74.4082 46.2871C74.0957 45.9681 73.8548 45.5612 73.6855 45.0664C73.5163 44.5651 73.4316 43.9661 73.4316 43.2695V36.4336H76.4785V43.2891C76.4785 43.5625 76.5111 43.7969 76.5762 43.9922C76.6478 44.181 76.7422 44.3372 76.8594 44.4609C76.9831 44.5846 77.1328 44.6758 77.3086 44.7344C77.4909 44.793 77.6895 44.8223 77.9043 44.8223C78.4447 44.8223 78.8678 44.7116 79.1738 44.4902C79.4863 44.2624 79.7044 43.9596 79.8281 43.582C79.9583 43.1979 80.0234 42.7682 80.0234 42.293ZM89.7305 47.1953C88.8906 47.1953 88.1387 47.0618 87.4746 46.7949C86.8105 46.528 86.2474 46.1602 85.7852 45.6914C85.3294 45.2161 84.9811 44.6693 84.7402 44.0508C84.4993 43.4323 84.3789 42.7715 84.3789 42.0684V41.6973C84.3789 40.9095 84.4896 40.1836 84.7109 39.5195C84.9323 38.8555 85.2546 38.2793 85.6777 37.791C86.1074 37.2962 86.6348 36.9154 87.2598 36.6484C87.8848 36.375 88.5977 36.2383 89.3984 36.2383C90.1471 36.2383 90.8145 36.362 91.4004 36.6094C91.9863 36.8503 92.4811 37.1986 92.8848 37.6543C93.2884 38.1035 93.5944 38.6471 93.8027 39.2852C94.0176 39.9167 94.125 40.6263 94.125 41.4141V42.6641H85.6094V40.7012H91.1367V40.4668C91.1367 40.0957 91.0684 39.7702 90.9316 39.4902C90.8014 39.2103 90.6061 38.9954 90.3457 38.8457C90.0918 38.6895 89.7695 38.6113 89.3789 38.6113C89.0078 38.6113 88.6986 38.6895 88.4512 38.8457C88.2038 39.002 88.0052 39.2233 87.8555 39.5098C87.7122 39.7897 87.6081 40.1185 87.543 40.4961C87.4779 40.8672 87.4453 41.2676 87.4453 41.6973V42.0684C87.4453 42.4785 87.5007 42.8529 87.6113 43.1914C87.722 43.5299 87.8848 43.8197 88.0996 44.0605C88.3145 44.3014 88.5749 44.4902 88.8809 44.627C89.1868 44.7637 89.5352 44.832 89.9258 44.832C90.4076 44.832 90.8665 44.7409 91.3027 44.5586C91.7389 44.3698 92.1165 44.0768 92.4355 43.6797L93.8613 45.3105C93.6465 45.623 93.3438 45.9258 92.9531 46.2188C92.569 46.5052 92.1068 46.7396 91.5664 46.9219C91.026 47.1042 90.4141 47.1953 89.7305 47.1953ZM98.666 38.8945V47H95.6191V36.4336H98.4805L98.666 38.8945ZM101.82 36.3555L101.771 39.1973C101.641 39.1777 101.472 39.1615 101.264 39.1484C101.055 39.1289 100.876 39.1191 100.727 39.1191C100.336 39.1191 99.9974 39.168 99.7109 39.2656C99.431 39.3568 99.1966 39.4935 99.0078 39.6758C98.8255 39.8581 98.6888 40.0859 98.5977 40.3594C98.5065 40.6263 98.4609 40.9355 98.4609 41.2871L97.8848 41.0039C97.8848 40.3073 97.9531 39.6693 98.0898 39.0898C98.2266 38.5104 98.4251 38.0091 98.6855 37.5859C98.946 37.1562 99.265 36.8242 99.6426 36.5898C100.02 36.3555 100.45 36.2383 100.932 36.2383C101.088 36.2383 101.247 36.248 101.41 36.2676C101.573 36.2871 101.71 36.3164 101.82 36.3555ZM102.299 41.8242V41.6191C102.299 40.8444 102.41 40.1315 102.631 39.4805C102.852 38.8229 103.178 38.2533 103.607 37.7715C104.037 37.2897 104.564 36.9154 105.189 36.6484C105.814 36.375 106.531 36.2383 107.338 36.2383C108.158 36.2383 108.881 36.375 109.506 36.6484C110.137 36.9154 110.668 37.2897 111.098 37.7715C111.527 38.2533 111.853 38.8229 112.074 39.4805C112.296 40.1315 112.406 40.8444 112.406 41.6191V41.8242C112.406 42.5924 112.296 43.3053 112.074 43.9629C111.853 44.6139 111.527 45.1836 111.098 45.6719C110.668 46.1536 110.141 46.528 109.516 46.7949C108.891 47.0618 108.171 47.1953 107.357 47.1953C106.55 47.1953 105.831 47.0618 105.199 46.7949C104.568 46.528 104.037 46.1536 103.607 45.6719C103.178 45.1836 102.852 44.6139 102.631 43.9629C102.41 43.3053 102.299 42.5924 102.299 41.8242ZM105.355 41.6191V41.8242C105.355 42.2409 105.388 42.6315 105.453 42.9961C105.525 43.3607 105.639 43.6797 105.795 43.9531C105.951 44.2266 106.156 44.4414 106.41 44.5977C106.671 44.7474 106.986 44.8223 107.357 44.8223C107.729 44.8223 108.041 44.7474 108.295 44.5977C108.549 44.4414 108.754 44.2266 108.91 43.9531C109.066 43.6797 109.177 43.3607 109.242 42.9961C109.314 42.6315 109.35 42.2409 109.35 41.8242V41.6191C109.35 41.209 109.314 40.8249 109.242 40.4668C109.177 40.1022 109.066 39.7799 108.91 39.5C108.754 39.2201 108.546 39.002 108.285 38.8457C108.031 38.6895 107.715 38.6113 107.338 38.6113C106.973 38.6113 106.664 38.6895 106.41 38.8457C106.156 39.002 105.951 39.2201 105.795 39.5C105.639 39.7799 105.525 40.1022 105.453 40.4668C105.388 40.8249 105.355 41.209 105.355 41.6191ZM122.045 38.6504V47H118.998V36.4336H121.859L122.045 38.6504ZM121.654 41.3457L120.883 41.3652C120.883 40.623 120.971 39.9427 121.146 39.3242C121.329 38.6992 121.592 38.1556 121.938 37.6934C122.283 37.2311 122.709 36.873 123.217 36.6191C123.731 36.3652 124.324 36.2383 124.994 36.2383C125.463 36.2383 125.889 36.3099 126.273 36.4531C126.658 36.5898 126.986 36.8079 127.26 37.1074C127.54 37.4004 127.755 37.7845 127.904 38.2598C128.054 38.7285 128.129 39.2917 128.129 39.9492V47H125.082V40.3203C125.082 39.8516 125.023 39.4967 124.906 39.2559C124.796 39.0085 124.633 38.8392 124.418 38.748C124.203 38.6569 123.946 38.6113 123.646 38.6113C123.321 38.6113 123.031 38.6829 122.777 38.8262C122.53 38.9629 122.322 39.1549 122.152 39.4023C121.983 39.6497 121.856 39.9395 121.771 40.2715C121.693 40.6035 121.654 40.9616 121.654 41.3457ZM127.816 41.1895L126.85 41.2676C126.85 40.5514 126.934 39.8874 127.104 39.2754C127.273 38.6634 127.527 38.1328 127.865 37.6836C128.204 37.2279 128.624 36.873 129.125 36.6191C129.633 36.3652 130.222 36.2383 130.893 36.2383C131.387 36.2383 131.837 36.3099 132.24 36.4531C132.65 36.5964 133.002 36.8275 133.295 37.1465C133.594 37.4655 133.826 37.8854 133.988 38.4062C134.151 38.9206 134.232 39.5521 134.232 40.3008V47H131.166V40.3008C131.166 39.8385 131.107 39.487 130.99 39.2461C130.88 39.0052 130.717 38.8392 130.502 38.748C130.294 38.6569 130.043 38.6113 129.75 38.6113C129.424 38.6113 129.141 38.6797 128.9 38.8164C128.66 38.9466 128.458 39.1289 128.295 39.3633C128.132 39.5911 128.012 39.8613 127.934 40.1738C127.855 40.4863 127.816 40.8249 127.816 41.1895ZM142.475 44.4512V36.4336H145.541V47H142.67L142.475 44.4512ZM142.797 42.293L143.637 42.2734C143.637 42.9831 143.552 43.6374 143.383 44.2363C143.22 44.8353 142.973 45.3561 142.641 45.7988C142.315 46.2415 141.908 46.5866 141.42 46.834C140.938 47.0749 140.375 47.1953 139.73 47.1953C139.21 47.1953 138.731 47.1237 138.295 46.9805C137.865 46.8307 137.494 46.5996 137.182 46.2871C136.869 45.9681 136.628 45.5612 136.459 45.0664C136.29 44.5651 136.205 43.9661 136.205 43.2695V36.4336H139.252V43.2891C139.252 43.5625 139.285 43.7969 139.35 43.9922C139.421 44.181 139.516 44.3372 139.633 44.4609C139.757 44.5846 139.906 44.6758 140.082 44.7344C140.264 44.793 140.463 44.8223 140.678 44.8223C141.218 44.8223 141.641 44.7116 141.947 44.4902C142.26 44.2624 142.478 43.9596 142.602 43.582C142.732 43.1979 142.797 42.7682 142.797 42.293ZM153.676 44.6367V32H156.742V47H153.988L153.676 44.6367ZM147.094 41.8438V41.6387C147.094 40.8379 147.182 40.1087 147.357 39.4512C147.54 38.7871 147.803 38.2174 148.148 37.7422C148.5 37.2604 148.933 36.8893 149.447 36.6289C149.962 36.3685 150.551 36.2383 151.215 36.2383C151.827 36.2383 152.361 36.375 152.816 36.6484C153.272 36.9154 153.66 37.293 153.979 37.7812C154.304 38.263 154.568 38.8327 154.77 39.4902C154.971 40.1413 155.124 40.8477 155.229 41.6094V41.9609C155.131 42.6901 154.978 43.3704 154.77 44.002C154.568 44.6335 154.304 45.1901 153.979 45.6719C153.66 46.1471 153.269 46.5215 152.807 46.7949C152.351 47.0618 151.814 47.1953 151.195 47.1953C150.531 47.1953 149.942 47.0618 149.428 46.7949C148.92 46.528 148.493 46.1536 148.148 45.6719C147.803 45.1901 147.54 44.6237 147.357 43.9727C147.182 43.3216 147.094 42.612 147.094 41.8438ZM150.141 41.6387V41.8438C150.141 42.2604 150.17 42.6478 150.229 43.0059C150.294 43.3639 150.398 43.6797 150.541 43.9531C150.684 44.2266 150.873 44.4414 151.107 44.5977C151.342 44.7474 151.628 44.8223 151.967 44.8223C152.423 44.8223 152.797 44.7181 153.09 44.5098C153.383 44.2949 153.604 43.9987 153.754 43.6211C153.904 43.2435 153.982 42.804 153.988 42.3027V41.2773C153.988 40.8607 153.946 40.4863 153.861 40.1543C153.777 39.8223 153.65 39.5423 153.48 39.3145C153.318 39.0866 153.113 38.9141 152.865 38.7969C152.618 38.6732 152.325 38.6113 151.986 38.6113C151.654 38.6113 151.371 38.6895 151.137 38.8457C150.902 38.9954 150.71 39.207 150.561 39.4805C150.417 39.7539 150.31 40.0762 150.238 40.4473C150.173 40.8118 150.141 41.209 150.141 41.6387ZM164.369 44.4805V39.9492C164.369 39.6302 164.32 39.3568 164.223 39.1289C164.125 38.901 163.972 38.722 163.764 38.5918C163.555 38.4616 163.285 38.3965 162.953 38.3965C162.673 38.3965 162.429 38.4453 162.221 38.543C162.019 38.6406 161.863 38.7806 161.752 38.9629C161.648 39.1452 161.596 39.3698 161.596 39.6367H158.549C158.549 39.1615 158.656 38.7188 158.871 38.3086C159.086 37.8984 159.392 37.5371 159.789 37.2246C160.193 36.9121 160.674 36.6712 161.234 36.502C161.794 36.3262 162.423 36.2383 163.119 36.2383C163.946 36.2383 164.682 36.3783 165.326 36.6582C165.977 36.9316 166.492 37.3451 166.869 37.8984C167.247 38.4453 167.436 39.1354 167.436 39.9688V44.3926C167.436 45.0306 167.471 45.5319 167.543 45.8965C167.621 46.2546 167.732 46.5671 167.875 46.834V47H164.799C164.656 46.694 164.548 46.3164 164.477 45.8672C164.405 45.4115 164.369 44.9492 164.369 44.4805ZM164.75 40.5547L164.77 42.2344H163.256C162.917 42.2344 162.624 42.2767 162.377 42.3613C162.136 42.446 161.941 42.5632 161.791 42.7129C161.641 42.8561 161.531 43.0254 161.459 43.2207C161.394 43.4095 161.361 43.6178 161.361 43.8457C161.361 44.0605 161.413 44.2559 161.518 44.4316C161.622 44.6009 161.765 44.7344 161.947 44.832C162.13 44.9297 162.341 44.9785 162.582 44.9785C162.979 44.9785 163.318 44.9004 163.598 44.7441C163.884 44.5879 164.105 44.3991 164.262 44.1777C164.418 43.9499 164.496 43.7383 164.496 43.543L165.229 44.8125C165.111 45.0729 164.968 45.3431 164.799 45.623C164.63 45.8965 164.415 46.1536 164.154 46.3945C163.894 46.6289 163.578 46.821 163.207 46.9707C162.842 47.1204 162.403 47.1953 161.889 47.1953C161.225 47.1953 160.622 47.0618 160.082 46.7949C159.542 46.5215 159.109 46.1471 158.783 45.6719C158.464 45.1966 158.305 44.6497 158.305 44.0312C158.305 43.4779 158.406 42.9863 158.607 42.5566C158.809 42.127 159.112 41.7624 159.516 41.4629C159.926 41.1634 160.44 40.9388 161.059 40.7891C161.677 40.6328 162.4 40.5547 163.227 40.5547H164.75ZM172.494 38.8945V47H169.447V36.4336H172.309L172.494 38.8945ZM175.648 36.3555L175.6 39.1973C175.469 39.1777 175.3 39.1615 175.092 39.1484C174.883 39.1289 174.704 39.1191 174.555 39.1191C174.164 39.1191 173.826 39.168 173.539 39.2656C173.259 39.3568 173.025 39.4935 172.836 39.6758C172.654 39.8581 172.517 40.0859 172.426 40.3594C172.335 40.6263 172.289 40.9355 172.289 41.2871L171.713 41.0039C171.713 40.3073 171.781 39.6693 171.918 39.0898C172.055 38.5104 172.253 38.0091 172.514 37.5859C172.774 37.1562 173.093 36.8242 173.471 36.5898C173.848 36.3555 174.278 36.2383 174.76 36.2383C174.916 36.2383 175.076 36.248 175.238 36.2676C175.401 36.2871 175.538 36.3164 175.648 36.3555ZM180.326 32.7812L179.955 42.5762H177.445L177.074 32.7812H180.326ZM176.986 45.6133C176.986 45.1771 177.143 44.8092 177.455 44.5098C177.768 44.2103 178.181 44.0605 178.695 44.0605C179.203 44.0605 179.61 44.2103 179.916 44.5098C180.229 44.8092 180.385 45.1771 180.385 45.6133C180.385 46.056 180.229 46.4271 179.916 46.7266C179.61 47.0195 179.203 47.166 178.695 47.166C178.181 47.166 177.768 47.0195 177.455 46.7266C177.143 46.4271 176.986 46.056 176.986 45.6133Z" fill="white"/>
<defs>
<filter id="filter0_d_1001_479" x="0.369864" y="0.123288" width="309.274" height="101.342" filterUnits="userSpaceOnUse" color-interpolation-filters="sRGB">
<feFlood flood-opacity="0" result="BackgroundImageFix"/>
<feColorMatrix in="SourceAlpha" type="matrix" values="0 0 0 0 0 0 0 0 0 0 0 0 0 0 0 0 0 0 127 0" result="hardAlpha"/>
<feOffset dx="7.50685" dy="11.2603"/>
<feGaussianBlur stdDeviation="6.56849"/>
<feComposite in2="hardAlpha" operator="out"/>
<feColorMatrix type="matrix" values="0 0 0 0 0 0 0 0 0 0 0 0 0 0 0 0 0 0 0.1 0"/>
<feBlend mode="normal" in2="BackgroundImageFix" result="effect1_dropShadow_1001_479"/>
<feBlend mode="normal" in="SourceGraphic" in2="effect1_dropShadow_1001_479" result="shape"/>
</filter>
</defs>
</svg>
