<svg width="127" height="33" viewBox="0 0 127 33" fill="none" xmlns="http://www.w3.org/2000/svg">
<path fill-rule="evenodd" clip-rule="evenodd" d="M24 16.5C24 20.6421 20.6421 24 16.5 24C12.3579 24 9 20.6421 9 16.5C9 12.3579 12.3579 9 16.5 9C20.6421 9 24 12.3579 24 16.5ZM33 16.5C33 25.6127 25.6127 33 16.5 33C7.3873 33 0 25.6127 0 16.5C0 7.3873 7.3873 0 16.5 0C25.6127 0 33 7.3873 33 16.5ZM110.322 22.3257C110.322 22.6617 110.538 22.8537 110.97 22.9017H114.066C115.134 22.9017 115.878 23.1297 116.298 23.5857C116.718 24.0417 116.862 24.6057 116.73 25.2777C116.61 25.9497 116.202 26.5677 115.506 27.1317C114.81 27.6957 113.85 27.9777 112.626 27.9777C110.382 27.9777 108.942 27.6477 108.306 26.9877C108.066 26.7237 107.964 26.4117 108 26.0517C108.036 25.7037 108.168 25.4157 108.396 25.1877C108.624 24.9717 108.882 24.8217 109.17 24.7377C108.786 24.4137 108.594 24.0117 108.594 23.5317C108.594 23.0517 108.738 22.6257 109.026 22.2537C109.326 21.8697 109.668 21.5637 110.052 21.3357C108.672 20.8317 107.982 19.9257 107.982 18.6177C107.982 17.6457 108.426 16.8957 109.314 16.3677C110.214 15.8277 111.228 15.5577 112.356 15.5577C112.896 15.5577 113.436 15.6417 113.976 15.8097C113.7 15.4377 113.562 14.9937 113.562 14.4777C113.562 13.9617 113.736 13.5357 114.084 13.1997C114.444 12.8517 114.888 12.6777 115.416 12.6777C115.956 12.6777 116.358 12.8217 116.622 13.1097C116.898 13.3857 117.036 13.6977 117.036 14.0457C117.036 14.3937 116.928 14.6877 116.712 14.9277C116.508 15.1677 116.232 15.2877 115.884 15.2877C115.548 15.2877 115.278 15.1737 115.074 14.9457C114.87 14.7177 114.768 14.4897 114.768 14.2617C114.768 14.0217 114.81 13.8177 114.894 13.6497C114.99 13.4697 115.038 13.3677 115.038 13.3437C115.002 13.1517 114.882 13.0977 114.678 13.1817C114.474 13.2657 114.294 13.4397 114.138 13.7037C113.994 13.9557 113.922 14.2497 113.922 14.5857C113.922 15.2457 114.216 15.7737 114.804 16.1697C115.836 16.7457 116.352 17.5437 116.352 18.5637C116.352 19.5837 115.926 20.3577 115.074 20.8857C114.222 21.4017 113.214 21.6597 112.05 21.6597C111.486 21.6597 110.988 21.5997 110.556 21.4797C110.4 21.7437 110.322 22.0257 110.322 22.3257ZM113.652 18.5817C113.652 17.5497 113.532 16.8477 113.292 16.4757C113.052 16.1037 112.692 15.9177 112.212 15.9177C111.744 15.9177 111.402 16.1097 111.186 16.4937C110.97 16.8657 110.862 17.5557 110.862 18.5637C110.862 19.5717 110.976 20.2797 111.204 20.6877C111.432 21.0957 111.774 21.2997 112.23 21.2997C112.698 21.2997 113.052 21.1017 113.292 20.7057C113.532 20.3097 113.652 19.6017 113.652 18.5817ZM113.958 25.2417H110.934C110.358 25.2417 109.872 25.1397 109.476 24.9357C109.308 25.7997 109.524 26.4597 110.124 26.9157C110.736 27.3837 111.57 27.6177 112.626 27.6177C113.682 27.6177 114.558 27.3537 115.254 26.8257C115.578 26.5857 115.758 26.3457 115.794 26.1057C115.83 25.8657 115.692 25.6617 115.38 25.4937C115.068 25.3257 114.594 25.2417 113.958 25.2417ZM46.6177 23.9997H50.7577V23.6397H50.0377V19.3557L52.6477 14.2797H53.9077V13.9197H50.7577V14.2797H52.1977L49.8577 18.8157L47.3377 14.2797H48.2197V13.9197H43.1797V14.2797H44.1157L47.3377 19.8417V23.6397H46.6177V23.9997ZM59.1495 23.8197C58.5015 23.8197 58.0455 23.5197 57.7815 22.9197C57.5175 22.3077 57.3855 21.2937 57.3855 19.8777C57.3855 18.4617 57.5175 17.4477 57.7815 16.8357C58.0455 16.2117 58.5015 15.8997 59.1495 15.8997C59.7975 15.8997 60.2595 16.2117 60.5355 16.8357C60.8115 17.4477 60.9495 18.4617 60.9495 19.8777C60.9495 21.2817 60.8115 22.2897 60.5355 22.9017C60.2595 23.5137 59.7975 23.8197 59.1495 23.8197ZM56.0175 23.0637C56.9415 23.8077 57.9735 24.1797 59.1135 24.1797C60.2535 24.1797 61.2795 23.8377 62.1915 23.1537C62.6475 22.8177 63.0135 22.3677 63.2895 21.8037C63.5655 21.2397 63.7035 20.5977 63.7035 19.8777C63.7035 19.1577 63.5655 18.5097 63.2895 17.9337C63.0135 17.3577 62.6475 16.9017 62.1915 16.5657C61.7475 16.2297 61.2615 15.9777 60.7335 15.8097C60.2175 15.6297 59.6895 15.5397 59.1495 15.5397C58.6095 15.5397 58.0815 15.6297 57.5655 15.8097C57.0495 15.9777 56.5635 16.2297 56.1075 16.5657C55.6635 16.9017 55.3035 17.3577 55.0275 17.9337C54.7635 18.5097 54.6315 19.1637 54.6315 19.8957C54.6315 21.2637 55.0935 22.3197 56.0175 23.0637ZM71.1816 23.9997V23.0457C70.9536 23.3697 70.5936 23.6457 70.1016 23.8737C69.6216 24.0897 69.0996 24.1977 68.5356 24.1977C66.3996 24.1977 65.3316 23.0397 65.3316 20.7237V16.0797H64.4316V15.7197H68.0316V21.1197C68.0316 21.9717 68.1576 22.5777 68.4096 22.9377C68.6616 23.2977 69.0396 23.4777 69.5436 23.4777C70.2156 23.4777 70.7616 23.1177 71.1816 22.3977V16.0797H70.2816V15.7197H73.8816V23.6397H74.7816V23.9997H71.1816ZM76.0459 23.9997H80.5459V23.6397H79.6459V20.2017C79.6459 19.3257 79.7839 18.4977 80.0599 17.7177C80.3359 16.9257 80.5879 16.5297 80.8159 16.5297C81.0199 16.5297 81.1819 16.7517 81.3019 17.1957C81.3499 17.3637 81.4339 17.5437 81.5539 17.7357C81.6739 17.9157 81.8719 18.0597 82.1479 18.1677C82.4239 18.2757 82.7239 18.2577 83.0479 18.1137C83.3839 17.9697 83.6179 17.7297 83.7499 17.3937C83.8819 17.0457 83.8759 16.7037 83.7319 16.3677C83.5879 16.0197 83.3659 15.7917 83.0659 15.6837C82.7779 15.5637 82.4719 15.5037 82.1479 15.5037C81.8359 15.5037 81.5059 15.5637 81.1579 15.6837C80.8219 15.8037 80.5099 16.0497 80.2219 16.4217C79.9459 16.7937 79.7539 17.2737 79.6459 17.8617V15.7197H76.0459V16.0797H76.9459V23.6397H76.0459V23.9997ZM96.7142 20.5797H97.0742V23.9997H88.6142V23.6397H89.5142V14.2797H88.6142V13.9197H93.2942V14.2797H92.2142V23.6397H94.0142C94.4222 23.6397 94.7582 23.6097 95.0222 23.5497C95.2982 23.4897 95.5802 23.3637 95.8682 23.1717C96.4322 22.7997 96.7142 21.9357 96.7142 20.5797ZM102.304 23.8197C101.656 23.8197 101.2 23.5197 100.936 22.9197C100.672 22.3077 100.54 21.2937 100.54 19.8777C100.54 18.4617 100.672 17.4477 100.936 16.8357C101.2 16.2117 101.656 15.8997 102.304 15.8997C102.952 15.8997 103.414 16.2117 103.69 16.8357C103.966 17.4477 104.104 18.4617 104.104 19.8777C104.104 21.2817 103.966 22.2897 103.69 22.9017C103.414 23.5137 102.952 23.8197 102.304 23.8197ZM99.1718 23.0637C100.096 23.8077 101.128 24.1797 102.268 24.1797C103.408 24.1797 104.434 23.8377 105.346 23.1537C105.802 22.8177 106.168 22.3677 106.444 21.8037C106.72 21.2397 106.858 20.5977 106.858 19.8777C106.858 19.1577 106.72 18.5097 106.444 17.9337C106.168 17.3577 105.802 16.9017 105.346 16.5657C104.902 16.2297 104.416 15.9777 103.888 15.8097C103.372 15.6297 102.844 15.5397 102.304 15.5397C101.764 15.5397 101.236 15.6297 100.72 15.8097C100.204 15.9777 99.7178 16.2297 99.2618 16.5657C98.8178 16.9017 98.4578 17.3577 98.1818 17.9337C97.9178 18.5097 97.7858 19.1637 97.7858 19.8957C97.7858 21.2637 98.2478 22.3197 99.1718 23.0637ZM122.413 23.8197C121.765 23.8197 121.309 23.5197 121.045 22.9197C120.781 22.3077 120.649 21.2937 120.649 19.8777C120.649 18.4617 120.781 17.4477 121.045 16.8357C121.309 16.2117 121.765 15.8997 122.413 15.8997C123.061 15.8997 123.523 16.2117 123.799 16.8357C124.075 17.4477 124.213 18.4617 124.213 19.8777C124.213 21.2817 124.075 22.2897 123.799 22.9017C123.523 23.5137 123.061 23.8197 122.413 23.8197ZM119.281 23.0637C120.205 23.8077 121.237 24.1797 122.377 24.1797C123.517 24.1797 124.543 23.8377 125.455 23.1537C125.911 22.8177 126.277 22.3677 126.553 21.8037C126.829 21.2397 126.967 20.5977 126.967 19.8777C126.967 19.1577 126.829 18.5097 126.553 17.9337C126.277 17.3577 125.911 16.9017 125.455 16.5657C125.011 16.2297 124.525 15.9777 123.997 15.8097C123.481 15.6297 122.953 15.5397 122.413 15.5397C121.873 15.5397 121.345 15.6297 120.829 15.8097C120.313 15.9777 119.827 16.2297 119.371 16.5657C118.927 16.9017 118.567 17.3577 118.291 17.9337C118.027 18.5097 117.895 19.1637 117.895 19.8957C117.895 21.2637 118.357 22.3197 119.281 23.0637Z" fill="#E8042F"/>
</svg>
